<?xml version="1.0" encoding="UTF-8"?>
<!DOCTYPE svg PUBLIC "-//W3C//DTD SVG 1.1//EN" "http://www.w3.org/Graphics/SVG/1.1/DTD/svg11.dtd">
<svg version="1.1" id="Layer_1" xmlns="http://www.w3.org/2000/svg" xmlns:xlink="http://www.w3.org/1999/xlink" x="0px" y="0px" width="24px" height="24px" viewBox="0 0 24 24" enable-background="new 0 0 24 24" xml:space="preserve">
  <g id="icon">
    <circle cx="12" cy="12" r="11" fill="#2DB1E4"/>
    <path d="M6.3871,16.5647c0.419,-0.3783,0.8563,-0.7711,0.9717,-0.8729c0.1155,-0.1017,0.2106,-0.1954,0.2114,-0.2081c0.0015,-0.0232,-1.2262,-0.8494,-1.2819,-0.8626c-0.0165,-0.0039,-0.0405,0.027,-0.054,0.0694c-0.03,0.0944,-0.4123,1.5246,-0.6254,2.3395c-0.0455,0.1739,-0.0461,0.2226,-0.0031,0.2226C5.6165,17.2526,5.9681,16.9431,6.3871,16.5647L6.3871,16.5647zM17.9866,17.1765c0.2231,-0.2925,0.3481,-0.9254,0.2949,-1.4928c-0.0606,-0.6455,-0.2362,-1.0922,-0.573,-1.4573c-0.2498,-0.2708,-0.4614,-0.3298,-0.7033,-0.1961c-0.3771,0.2084,-0.7348,0.4293,-0.788,0.4866c-0.1587,0.171,-0.1478,0.4494,0.0315,0.805c0.1813,0.3597,0.3783,0.565,0.8168,0.8513c0.4523,0.2953,0.6359,0.5211,0.7351,0.9039c0.0318,0.1228,0.0646,0.1742,0.1118,0.1752C17.9213,17.2525,17.9547,17.2184,17.9866,17.1765zM8.1925,14.5225c0.8556,-1.5255,1.9473,-3.4183,2.6254,-4.552c0.1479,-0.2472,0.2689,-0.4567,0.2689,-0.4655c0,-0.0283,-1.2731,-0.8108,-1.3069,-0.8033c-0.034,0.0075,-1.1722,1.9235,-1.9803,3.3335c-0.2562,0.447,-0.6369,1.0832,-0.8461,1.4138s-0.4119,0.6512,-0.4506,0.7124c-0.0405,0.0642,-0.0615,0.1195,-0.0496,0.1309c0.0573,0.0549,1.3418,0.8771,1.3611,0.8712C7.8267,15.1597,7.9969,14.8713,8.1925,14.5225L8.1925,14.5225zM16.5089,13.9806c0.3306,-0.188,0.6211,-0.3605,0.6453,-0.3833c0.0432,-0.0405,0.0416,-0.0459,-0.0805,-0.2567c-0.0686,-0.1184,-0.2352,-0.4078,-0.3702,-0.6431c-0.1351,-0.2353,-0.2612,-0.4308,-0.2802,-0.4346c-0.0504,-0.0099,-1.3002,0.7193,-1.3088,0.7636c-0.0071,0.0369,0.6492,1.194,0.7221,1.273c0.021,0.0227,0.0455,0.0372,0.0546,0.0321C15.9003,14.3266,16.1783,14.1686,16.5089,13.9806L16.5089,13.9806zM18.9992,12.7577c0.0093,-0.0167,0.0147,-0.3726,0.0119,-0.7909l-0.005,-0.7606l-1.4064,-0.006c-1.2272,-0.0052,-1.4054,-0.0016,-1.3989,0.028c0.0041,0.0187,0.2,0.3773,0.4352,0.7968l0.4277,0.7629l0.0926,0.0068c0.0509,0.0038,0.4826,0.0038,0.9593,0C18.8007,12.7894,18.9858,12.7816,18.9992,12.7577L18.9992,12.7577zM14.5497,12.7251c0.0039,-0.0116,-0.1745,-0.3477,-0.3963,-0.7469l-0.4034,-0.7258h-1.7149h-1.7149l-0.4049,0.7331c-0.2227,0.4032,-0.3998,0.7414,-0.3936,0.7515C9.5379,12.7631,14.541,12.7512,14.5497,12.7251L14.5497,12.7251zM7.1835,12.5993c0.0459,-0.0795,0.2353,-0.4071,0.421,-0.7281c0.1857,-0.321,0.3376,-0.5942,0.3376,-0.6071c0,-0.0158,-0.4738,-0.0216,-1.4394,-0.0176l-1.4394,0.006l-0.0077,0.1619c-0.0042,0.089,-0.0005,0.4246,0.0084,0.7457l0.0161,0.5838h1.01h1.01L7.1835,12.5993zM15.6649,12.3045c0.5872,-0.3232,0.5781,-0.3175,0.5781,-0.3589c0,-0.0403,-0.3094,-0.5873,-1.3598,-2.4043c-1.1546,-1.9972,-1.6631,-2.8776,-2.001,-3.4646c-0.3331,-0.5786,-0.4119,-0.6864,-0.5548,-0.7593c-0.1125,-0.0574,-0.2925,-0.0663,-0.4088,-0.0203c-0.1108,0.0439,-0.5013,0.2713,-0.6046,0.352c-0.1656,0.1295,-0.2284,0.3857,-0.144,0.5876c0.0455,0.1089,0.0145,0.0546,1.1068,1.9403c1.7195,2.9686,2.6033,4.4656,2.658,4.5021c0.0135,0.009,0.0767,-0.0129,0.1404,-0.0487S15.4042,12.448,15.6649,12.3045zM11.4178,8.8882c0.2738,-0.4569,0.3139,-0.5368,0.3307,-0.6591c0.0348,-0.2541,-0.0989,-0.4244,-0.5215,-0.6641c-0.2396,-0.1359,-0.2785,-0.1506,-0.419,-0.1585c-0.192,-0.0108,-0.2867,0.0295,-0.4189,0.1783c-0.099,0.1115,-0.4819,0.7931,-0.4813,0.8565c0.0002,0.0227,0.2386,0.1825,0.6301,0.4226c0.3463,0.2124,0.6369,0.3867,0.6456,0.3873C11.1924,9.2518,11.2978,9.0885,11.4178,8.8882L11.4178,8.8882z" fill="#FFFFFF"/>
    <path d="M4.2218,19.7782C6.2124,21.7688,8.9624,23,12,23c6.0751,0,11,-4.9249,11,-11c0,-3.0376,-1.2312,-5.7876,-3.2218,-7.7782L4.2218,19.7782z" fill="#231F20" opacity="0.1"/>
  </g>
</svg>
