<?xml version="1.0" encoding="UTF-8"?>
<!DOCTYPE svg PUBLIC "-//W3C//DTD SVG 1.1//EN" "http://www.w3.org/Graphics/SVG/1.1/DTD/svg11.dtd">
<svg version="1.1" id="Layer_1" xmlns="http://www.w3.org/2000/svg" xmlns:xlink="http://www.w3.org/1999/xlink" x="0px" y="0px" width="24px" height="24px" viewBox="0 0 24 24" enable-background="new 0 0 24 24" xml:space="preserve">
  <g id="icon">
    <path d="M12.0556,22.9412c6.0758,0,11.0008,-4.9032,11.0008,-10.9511c0,-6.0476,-4.925,-10.9505,-11.0008,-10.9505c-6.0764,0,-11.0008,4.9029,-11.0008,10.9505C1.0549,18.038,5.9792,22.9412,12.0556,22.9412" fill="#148FE2"/>
    <path d="M8.1443,10.5455l3.9116,2.4034l-2.7145,2.2533L5.462,12.6824L8.1443,10.5455zM9.3415,5.8888L5.462,8.4075l2.6824,2.138l3.9116,-2.4033L9.3415,5.8888zM18.6496,8.4075l-3.8795,-2.5187L12.056,8.1422l3.9113,2.4033L18.6496,8.4075zM12.056,12.9488l2.7142,2.2533l3.8795,-2.5198l-2.6823,-2.1369L12.056,12.9488zM12.064,13.4335l-2.7225,2.2473l-1.165,-0.7571v0.8491l3.8875,2.3193l3.8875,-2.3193v-0.8491l-1.165,0.7571L12.064,13.4335z" fill="#FFFFFF"/>
    <path d="M4.2218,19.7782C6.2124,21.7688,8.9624,23,12,23c6.0751,0,11,-4.9249,11,-11c0,-3.0376,-1.2312,-5.7876,-3.2218,-7.7782L4.2218,19.7782z" fill="#231F20" opacity="0.1"/>
  </g>
</svg>
