<?xml version="1.0" encoding="UTF-8"?>
<!DOCTYPE svg PUBLIC "-//W3C//DTD SVG 1.1//EN" "http://www.w3.org/Graphics/SVG/1.1/DTD/svg11.dtd">
<svg version="1.1" id="Layer_1" xmlns="http://www.w3.org/2000/svg" xmlns:xlink="http://www.w3.org/1999/xlink" x="0px" y="0px" width="24px" height="24px" viewBox="0 0 24 24" enable-background="new 0 0 24 24" xml:space="preserve">
  <g id="icon">
    <circle cx="12" cy="12" r="11" fill="#74BB44"/>
    <path d="M6.4321,8.5823c-0.0097,0.0042,-0.0785,0.0384,-0.1288,0.0633c0.0014,-0.0056,0.0046,-0.0106,0.0091,-0.0143l2.4324,-2.412c0.0038,-0.004,0.0088,-0.0068,0.0143,-0.0078l-0.0426,0.0803c-0.0898,0.1792,-0.1411,0.3928,-0.1411,0.6377v0.0036c0,0.2981,0.0152,1.3712,0.0152,1.3717c-0.0002,0.0714,-0.0581,0.1292,-0.1295,0.1294H7.2082v0C6.9007,8.4343,6.6438,8.4866,6.4321,8.5823zM17.2228,13.8861c-0.1742,1.8909,-0.4627,3.0169,-0.582,3.3859c-0.6026,1.8693,-1.1165,1.9169,-2.5754,1.9169c-1.8611,0,-2.4307,-0.2764,-2.4307,-1.7649c0,-1.6399,0.7716,-1.6746,2.0826,-1.6383c0.1881,0.0045,-0.0108,0.188,-0.0108,0.5058c0,0.3194,0.1231,0.4452,-0.0464,0.4452c-0.3791,0,-0.8908,-0.0544,-0.8908,0.4631c0,0.6396,0.3071,0.6188,1.1128,0.6188c0.9937,0,1.1838,-0.124,1.1838,-1.029c0,-1.4879,-0.4207,-1.7157,-1.0004,-1.7826c-0.6416,-0.0752,-1.2725,-0.1715,-1.5769,-0.2793c-0.7708,-0.2735,-0.7155,-1.2937,-0.7155,-1.582c0,-0.0434,-0.061,-0.0417,-0.061,0c0,0.4082,-0.0292,0.9725,-0.2392,1.6083c-0.0654,0.1838,-0.1131,0.308,-0.1139,0.3096c-0.2417,0.5069,-0.6474,0.3331,-1.2936,0.2504c-0.6477,-0.0825,-2.0291,-0.3707,-2.6339,-0.6297c-0.2713,-0.126,-0.3635,-0.2455,-0.5016,-0.5313c-0.3564,-0.735,-0.7316,-3.1518,-0.778,-3.4977c-0.0556,-0.4472,-0.058,-0.6781,-0.058,-0.6781c-0.0007,-0.2828,0.0284,-0.5598,0.1955,-0.7842c0.084,-0.1131,0.1946,-0.2086,0.3507,-0.2795c0.1559,-0.0708,0.36,-0.1156,0.627,-0.1156h1.252c0.2723,-0.0003,0.493,-0.2209,0.4934,-0.4932c0,-0.002,-0.0042,-0.275,-0.0078,-0.5801c-0.0037,-0.3044,-0.0078,-0.6468,-0.0078,-0.7921c0.0005,-0.2569,0.0657,-0.4407,0.1662,-0.5844c0.1498,-0.2148,0.4192,-0.3541,0.6627,-0.4223c0.3061,-0.0858,1.4995,-0.1608,2.2714,0.1498c0.2899,0.1168,0.5489,0.4542,0.6028,0.8235c0.4492,-0.0137,1.193,-0.0198,1.8258,0.0549c0.7862,0.0926,1.4123,0.2082,1.7209,0.3198c0.2862,0.1032,0.6028,0.3655,0.7022,0.8977v0C17.1186,9.0823,17.333,12.6908,17.2228,13.8861zM15.3045,12.3547c0.0001,0,0.0001,0.0001,0.0001,0.0001c-0.002,-0.3806,-0.0851,-0.9428,-0.68,-0.9634c-0.0336,-0.0012,-0.0658,-0.0005,-0.0964,0.0018c-0.0047,0.0004,-0.0092,0.0008,-0.0138,0.0013c-0.0029,0.0003,-0.0059,0.0005,-0.0088,0.0008c-0.4415,0.0472,-0.5736,0.4571,-0.6157,0.7957c0.0001,0,0.0001,0,0.0001,0l0.0001,0c0.0054,-0.0009,0.0109,-0.0017,0.0163,-0.0025c0.0473,-0.0072,0.0948,-0.0132,0.1424,-0.0178c0.0047,-0.0005,0.0094,-0.0009,0.014,-0.0013c0.005,-0.0005,0.0101,-0.0009,0.0151,-0.0014c0.1048,-0.009,0.2134,-0.0119,0.3247,-0.0082c0.0008,0,0.0016,0,0.0024,0.0001c0.0085,0.0003,0.017,0.0007,0.0254,0.001c0.0021,0.0001,0.0043,0.0002,0.0064,0.0003c0.0002,0,0.0005,0,0.0007,0c0.113,0.0053,0.2228,0.0172,0.3281,0.035C14.9638,12.2298,15.1461,12.2843,15.3045,12.3547C15.3045,12.3548,15.3045,12.3548,15.3045,12.3547z" fill="#FFFFFF"/>
    <path d="M4.2218,19.7782C6.2124,21.7688,8.9624,23,12,23c6.0751,0,11,-4.9249,11,-11c0,-3.0376,-1.2312,-5.7876,-3.2218,-7.7782L4.2218,19.7782z" fill="#231F20" opacity="0.1"/>
  </g>
</svg>
