<?xml version="1.0" encoding="UTF-8"?>
<!DOCTYPE svg PUBLIC "-//W3C//DTD SVG 1.1//EN" "http://www.w3.org/Graphics/SVG/1.1/DTD/svg11.dtd">
<svg version="1.1" id="Layer_1" xmlns="http://www.w3.org/2000/svg" xmlns:xlink="http://www.w3.org/1999/xlink" x="0px" y="0px" width="24px" height="24px" viewBox="0 0 24 24" enable-background="new 0 0 24 24" xml:space="preserve">
  <g id="icon">
    <circle cx="12" cy="11.9975" r="11" fill="#3760AA"/>
    <path d="M12,16.8661c-0.8104,0,-1.6127,-0.2111,-2.3219,-0.5911H6.0626c-0.3799,0,-0.7126,-0.2236,-0.7126,-0.6013V8.5795c0,-0.3139,0.331,-0.8545,0.57,-0.8545h1.045c0.0436,-0.285,0.345,-0.57,0.6947,-0.57h0.5229c0.3479,0,0.6363,0.285,0.6824,0.57h0.8131c0.7084,-0.38,1.5107,-0.5912,2.3219,-0.5912c0.8113,0,1.6134,0.2112,2.3215,0.5912h3.6158c0.3796,0,0.7127,0.4768,0.7127,0.8544v7.0943c0,0.3777,-0.3323,0.6013,-0.7122,0.6013h-3.6159C13.6127,16.655,12.8104,16.8661,12,16.8661zM12.0009,7.9689c-0.1556,0,-0.3228,0.0118,-0.5112,0.0362c-0.0403,0.0051,-0.0803,0.0119,-0.12,0.0186c-0.1483,0.0231,-0.2913,0.0535,-0.4263,0.0903c-0.0098,0.003,-0.0219,0.006,-0.0341,0.0091c-0.0089,0.0022,-0.0178,0.0045,-0.0267,0.0071c-0.3383,0.098,-0.6631,0.2406,-0.9652,0.4236c-1.2386,0.7487,-1.978,2.0612,-1.978,3.511c0,1.4491,0.7393,2.7616,1.9776,3.5109c0.3037,0.1836,0.6285,0.3261,0.9652,0.4236c0.0093,0.0028,0.0182,0.005,0.0272,0.0072c0.012,0.0031,0.024,0.0061,0.0359,0.0096c0.1272,0.0351,0.2664,0.0645,0.4235,0.0894c0.0404,0.007,0.08,0.0137,0.1194,0.0187c0.1888,0.0244,0.3563,0.0363,0.5122,0.0363c0.1557,0,0.3231,-0.0119,0.5117,-0.0363c0.0402,-0.005,0.0791,-0.0118,0.1183,-0.0186c0.1524,-0.0238,0.2955,-0.054,0.4269,-0.0902c0.0099,-0.003,0.052,-0.0136,0.0609,-0.0162c0.337,-0.0976,0.6618,-0.2402,0.9654,-0.4237c1.2391,-0.7493,1.9789,-2.0618,1.9789,-3.5109c0,-1.4491,-0.7395,-2.7616,-1.978,-3.511c-0.3036,-0.1835,-0.6284,-0.3261,-0.9652,-0.4237l-0.0611,-0.0162c-0.1346,-0.0367,-0.2776,-0.067,-0.4247,-0.09c-0.0445,-0.0075,-0.0826,-0.0139,-0.121,-0.0188C12.3241,7.9808,12.1569,7.9689,12.0009,7.9689zM17.8423,15.42l0.0005,-6.935h-2.4673c0.9367,0.855,1.4695,2.1505,1.4695,3.4675c0,1.3166,-0.5328,2.6125,-1.4696,3.4675H17.8423zM8.6249,15.42c-0.9367,-0.855,-1.4695,-2.1504,-1.4695,-3.4675c0,-1.3171,0.5328,-2.6125,1.4695,-3.4675H6.205v6.935H8.6249zM14.6536,11.8496c-0.0921,-1.3457,-1.1602,-2.414,-2.4961,-2.4939c-0.0886,-0.0053,-0.1574,-0.0792,-0.1574,-0.168v-0.311c0,-0.107,0.0907,-0.1912,0.1974,-0.185c1.688,0.0983,3.0159,1.4283,3.1209,3.1292c0.0073,0.1177,-0.0864,0.2176,-0.2043,0.2176h-0.2578C14.7494,12.0385,14.6608,11.9561,14.6536,11.8496z" fill="#FFFFFF"/>
    <path d="M4.2218,19.7782C6.2124,21.7688,8.9624,23,12,23c6.0751,0,11,-4.9249,11,-11c0,-3.0376,-1.2312,-5.7876,-3.2218,-7.7782L4.2218,19.7782z" fill="#231F20" opacity="0.1"/>
  </g>
</svg>
