<?xml version="1.0" encoding="UTF-8"?>
<!DOCTYPE svg PUBLIC "-//W3C//DTD SVG 1.1//EN" "http://www.w3.org/Graphics/SVG/1.1/DTD/svg11.dtd">
<svg version="1.1" id="Layer_1" xmlns="http://www.w3.org/2000/svg" xmlns:xlink="http://www.w3.org/1999/xlink" x="0px" y="0px" width="24px" height="24px" viewBox="0 0 24 24" enable-background="new 0 0 24 24" xml:space="preserve">
  <g id="icon">
    <circle cx="12" cy="12" r="11" fill="#CC3E4F"/>
    <path d="M18.6428,9.4718c-0.0202,-0.0127,-0.0513,-0.0095,-0.1056,-0.0043c-0.1012,0.0101,-0.7105,0.0728,-0.9818,0.1001c-0.1105,0.0104,-0.1586,0.0548,-0.2089,0.1385c-0.0493,0.0826,-1.4009,2.3679,-1.4009,2.3679s1.0322,-5.5156,1.0582,-5.6645c0.0342,-0.1937,-0.0024,-0.2361,-0.1504,-0.2342c-0.1572,0.0023,-0.8548,0.0771,-0.9591,0.0937c-0.1343,0.021,-0.1861,0.0604,-0.2164,0.2349c-0.0222,0.1276,-1.529,8.2889,-1.555,8.4337c-0.0415,0.2311,-0.0373,0.2384,0.1751,0.2051c0.1248,-0.0193,0.7171,-0.1143,0.9735,-0.1555c0.073,-0.0118,0.1175,-0.0121,0.14,-0.1295c0.0224,-0.1173,0.4816,-2.5103,0.4816,-2.5103s0.7735,2.1881,0.8091,2.2849c0.0329,0.0891,0.0574,0.1163,0.1692,0.0985c0.278,-0.0441,0.9206,-0.1468,0.9799,-0.1572c0.1092,-0.0191,0.1288,-0.0492,0.0964,-0.1432c-0.0327,-0.0959,-0.8224,-2.365,-0.8224,-2.365s1.4618,-2.3891,1.5196,-2.4847C18.6738,9.5333,18.6725,9.4903,18.6428,9.4718M13.8935,10.1188c-0.1889,-0.0708,-0.5766,-0.1883,-1.0328,-0.1366c-0.6927,0.0782,-1.1746,0.3861,-1.4236,0.8608c-0.2521,0.4801,-0.2138,1.0193,-0.1288,1.2886c0.0849,0.2677,0.3039,0.5781,0.6033,0.8443c0.6672,0.5936,0.6475,1.0477,0.5524,1.2478c-0.1132,0.237,-0.4456,0.4291,-0.8999,0.3306c-0.4545,-0.0987,-0.5963,-0.3995,-0.5963,-0.3995s-0.2249,0.7847,-0.2679,0.9391c-0.0575,0.2051,-0.0371,0.267,0.1555,0.3471c0.2543,0.1062,0.7431,0.2197,1.5365,0.0635c0.5432,-0.1067,1.0294,-0.536,1.2664,-0.9862c0.2451,-0.4659,0.3921,-1.3721,-0.3696,-2.0648c-0.6156,-0.5605,-0.6816,-0.6563,-0.749,-0.7797c-0.1223,-0.2217,-0.0242,-0.4791,0.0936,-0.6197c0.1048,-0.1259,0.2376,-0.1885,0.4536,-0.1767c0.2159,0.0117,0.6048,0.3037,0.6048,0.3037s0.2762,-0.79,0.2976,-0.8532C14.0229,10.2286,13.9979,10.1576,13.8935,10.1188M7.5823,13.5751l1.3061,-3.0829l0.0131,2.8755L7.5823,13.5751L7.5823,13.5751zM9.6161,7.3594c-0.0208,-0.2493,-0.2162,-0.2001,-0.3035,-0.0209c-0.3002,0.6163,-4.368,9.028,-4.4187,9.133c-0.0712,0.1483,-0.0145,0.1789,0.1306,0.1572c0.102,-0.0148,1.0059,-0.1596,1.2724,-0.2026c0.0897,-0.0145,0.1236,-0.0311,0.1521,-0.1004c0.0142,-0.0347,0.6565,-1.5502,0.6565,-1.5502l1.7946,-0.2815c0,0,0.016,1.1622,0.0182,1.3665c0.0011,0.0858,0.0091,0.1429,0.1569,0.1194c0.1702,-0.027,0.8725,-0.1394,0.9742,-0.1563c0.1787,-0.0296,0.1954,-0.0752,0.1827,-0.2391C10.2231,15.4652,9.6645,7.9471,9.6161,7.3594" fill="#FFFFFF"/>
    <path d="M4.2218,19.7782C6.2124,21.7688,8.9624,23,12,23c6.0751,0,11,-4.9249,11,-11c0,-3.0376,-1.2312,-5.7876,-3.2218,-7.7782L4.2218,19.7782z" fill="#231F20" opacity="0.1"/>
  </g>
</svg>
