<?xml version="1.0" encoding="UTF-8"?>
<!DOCTYPE svg PUBLIC "-//W3C//DTD SVG 1.1//EN" "http://www.w3.org/Graphics/SVG/1.1/DTD/svg11.dtd">
<svg version="1.1" id="Layer_1" xmlns="http://www.w3.org/2000/svg" xmlns:xlink="http://www.w3.org/1999/xlink" x="0px" y="0px" width="24px" height="24px" viewBox="0 0 24 24" enable-background="new 0 0 24 24" xml:space="preserve">
  <g id="icon">
    <circle cx="12" cy="12" r="11" fill="#E55D33"/>
    <path d="M12.5409,7.9894c-1.4583,0,-2.7788,0.5916,-3.7344,1.5476c-0.0792,0.0801,-0.1563,0.1624,-0.2311,0.2469V6.0056c-0.0004,-0.3631,-0.2945,-0.6581,-0.6581,-0.6581c-0.3627,0,-0.6576,0.2949,-0.6576,0.6576v6.9102c0,0.0308,0.0026,0.0621,0.0062,0.0911c-0.0044,0.0876,-0.0062,0.1752,-0.0062,0.265c0,1.457,0.5916,2.7775,1.5468,3.7335c0.956,0.956,2.2765,1.5476,3.7344,1.5476s2.7783,-0.5916,3.7344,-1.5476c0.956,-0.956,1.5468,-2.2765,1.5468,-3.7335c0,-1.4587,-0.5907,-2.7792,-1.5468,-3.7344C15.3197,8.581,13.9992,7.9894,12.5409,7.9894zM15.3452,16.0748c-0.7179,0.7179,-1.7092,1.1625,-2.8043,1.1625s-2.0864,-0.4446,-2.8043,-1.1625c-0.7179,-0.717,-1.1616,-1.7092,-1.1616,-2.8034c0,-1.0951,0.4437,-2.0873,1.1616,-2.8052c0.7179,-0.7179,1.7101,-1.1616,2.8043,-1.1616c1.0951,0,2.0864,0.4437,2.8043,1.1616c0.7179,0.7179,1.1616,1.7101,1.1616,2.8052C16.5068,14.3657,16.0631,15.3578,15.3452,16.0748zM10.5901,12.3052c0.6457,0,1.1691,0.5234,1.1691,1.1691s-0.5234,1.1691,-1.1691,1.1691S9.421,14.12,9.421,13.4743S9.9444,12.3052,10.5901,12.3052z" fill="#FFFFFF"/>
    <path d="M4.2218,19.7782C6.2124,21.7688,8.9624,23,12,23c6.0751,0,11,-4.9249,11,-11c0,-3.0376,-1.2312,-5.7876,-3.2218,-7.7782L4.2218,19.7782z" fill="#231F20" opacity="0.1"/>
  </g>
</svg>
