<?xml version="1.0" encoding="UTF-8"?>
<!DOCTYPE svg PUBLIC "-//W3C//DTD SVG 1.1//EN" "http://www.w3.org/Graphics/SVG/1.1/DTD/svg11.dtd">
<svg version="1.1" id="Layer_1" xmlns="http://www.w3.org/2000/svg" xmlns:xlink="http://www.w3.org/1999/xlink" x="0px" y="0px" width="24px" height="24px" viewBox="0 0 24 24" enable-background="new 0 0 24 24" xml:space="preserve">
  <g id="icon">
    <circle cx="12" cy="12" r="11" fill="#2C95CB"/>
    <path d="M5.9372,8.0235v7.9488h4.1342c0,0,2.5246,0.0772,2.5246,-2.3483c0,0,0.1103,-1.9734,-1.4883,-1.9734c0,0,1.2127,-0.0883,1.2127,-1.5104s-0.9922,-2.1167,-2.249,-2.1167H5.9372zM14.2553,8.492v0.9757h3.2798V8.492H14.2553zM7.7563,9.4346h2.3152c0,0,0.5622,-0.0001,0.5622,0.8269s-0.3307,0.9481,-0.7056,0.9481H7.7563L7.7563,9.4346zM15.9642,10.0465c-3.0564,0,-3.0538,3.0538,-3.0538,3.0538s-0.2097,3.0373,3.0538,3.0373c0,0,2.7176,0.1521,2.7176,-2.1167h-1.4001c0,0,0.0475,0.8544,-1.2734,0.8544c0,0,-1.3946,0.0928,-1.3946,-1.3836h4.1177C18.7312,13.4915,19.1811,10.0465,15.9642,10.0465L15.9642,10.0465zM15.9917,11.2096c1.2277,0,1.2127,1.2237,1.2127,1.2237h-2.6073C14.5971,12.4333,14.764,11.2096,15.9917,11.2096zM7.7563,12.4333h2.3152c0,0,0.8379,-0.011,0.8379,1.0914c0,0.8957,-0.5784,1.0166,-0.915,1.0308h-2.238L7.7563,12.4333z" fill="#FFFFFF"/>
    <path d="M4.2218,19.7782C6.2124,21.7688,8.9624,23,12,23c6.0751,0,11,-4.9249,11,-11c0,-3.0376,-1.2312,-5.7876,-3.2218,-7.7782L4.2218,19.7782z" fill="#231F20" opacity="0.1"/>
  </g>
</svg>
