<?xml version="1.0" encoding="UTF-8"?>
<!DOCTYPE svg PUBLIC "-//W3C//DTD SVG 1.1//EN" "http://www.w3.org/Graphics/SVG/1.1/DTD/svg11.dtd">
<svg version="1.1" id="Layer_1" xmlns="http://www.w3.org/2000/svg" xmlns:xlink="http://www.w3.org/1999/xlink" x="0px" y="0px" width="24px" height="24px" viewBox="0 0 24 24" enable-background="new 0 0 24 24" xml:space="preserve">
  <g id="icon">
    <circle cx="12" cy="12" r="11" fill="#EF7A2B"/>
    <path d="M10.0862,17.4957c-1.3576,-0.0814,-2.3139,-0.6682,-2.7839,-1.7083c-0.2095,-0.4634,-0.2975,-0.9089,-0.3021,-1.5293c-0.0029,-0.3245,0.0568,-3.9258,0.0768,-4.6678c0.021,-0.7821,0.1678,-1.3403,0.4812,-1.8307c0.4466,-0.6988,1.0781,-1.0946,2.0069,-1.2486c0.3568,-0.0591,3.4866,-0.1229,3.7897,-0.0728c0.7031,0.1162,1.2565,0.4016,1.7195,0.8865c0.3791,0.3971,0.6246,0.8768,0.7391,1.4444c0.0799,0.396,0.0878,1.3475,0.0142,1.7358c-0.0262,0.1383,-0.0302,0.1949,-0.0139,0.1949c0.0126,0,0.1212,0.0093,0.2413,0.0207c0.4782,0.0453,0.8387,0.1594,1.112,0.352c0.4771,0.3363,0.7032,0.7959,0.7554,1.5364c0.0308,0.4364,0.0253,1.5964,-0.0089,1.8691c-0.1103,0.8789,-0.4147,1.5444,-0.9508,2.079c-0.5028,0.5015,-1.0883,0.7827,-1.9011,0.9131c-0.1836,0.0295,-0.4675,0.0338,-2.4565,0.0375C11.3681,17.5099,10.2347,17.5046,10.0862,17.4957L10.0862,17.4957L10.0862,17.4957zM14.9496,14.9264c0.1805,-0.0468,0.3019,-0.1162,0.434,-0.2483c0.3081,-0.3082,0.3701,-0.7479,0.1627,-1.1546c-0.0583,-0.1143,-0.2304,-0.2847,-0.3624,-0.3587c-0.2336,-0.131,-0.1277,-0.1261,-2.7187,-0.1261c-2.0906,0,-2.3607,0.0035,-2.4776,0.0322c-0.4304,0.1057,-0.7222,0.4802,-0.7226,0.9273c0,0.2722,0.0933,0.4971,0.2846,0.6843c0.131,0.1282,0.23,0.186,0.4067,0.2374c0.111,0.0323,0.296,0.035,2.4959,0.0364C14.552,14.9577,14.8423,14.9543,14.9496,14.9264L14.9496,14.9264zM13.0696,10.5602c0.0631,-0.0237,0.1611,-0.0778,0.2177,-0.1204c0.6238,-0.4687,0.4681,-1.4237,-0.2753,-1.6885c-0.0801,-0.0285,-0.2127,-0.0375,-0.7568,-0.0514c-1.1596,-0.0296,-1.9257,-0.0268,-2.031,0.0073c-0.1671,0.0541,-0.3043,0.1366,-0.4168,0.2507c-0.5018,0.5086,-0.3043,1.3428,0.3754,1.5857c0.1027,0.0367,0.1878,0.0422,0.903,0.0584C12.7365,10.6393,12.8657,10.6366,13.0696,10.5602L13.0696,10.5602L13.0696,10.5602z" fill="#FFFFFF"/>
    <path d="M4.2218,19.7782C6.2124,21.7688,8.9624,23,12,23c6.0751,0,11,-4.9249,11,-11c0,-3.0376,-1.2312,-5.7876,-3.2218,-7.7782L4.2218,19.7782z" fill="#231F20" opacity="0.1"/>
  </g>
</svg>
