<?xml version="1.0" encoding="UTF-8"?>
<!DOCTYPE svg PUBLIC "-//W3C//DTD SVG 1.1//EN" "http://www.w3.org/Graphics/SVG/1.1/DTD/svg11.dtd">
<svg version="1.1" id="Layer_1" xmlns="http://www.w3.org/2000/svg" xmlns:xlink="http://www.w3.org/1999/xlink" x="0px" y="0px" width="24px" height="24px" viewBox="0 0 24 24" enable-background="new 0 0 24 24" xml:space="preserve">
  <g id="icon">
    <circle cx="12" cy="12" r="11" fill="#4B7FDB"/>
    <path d="M13.6,9.4526c-0.6,-0.7955,-1.4551,-1.1759,-2.5791,-1.1759c-1.1759,0,-2.2148,0.4324,-3.0795,1.2798c-0.9684,0.9339,-1.4792,2.1271,-1.4792,3.4588c0,1.4526,0.5575,2.6978,1.6297,3.6489c0.8128,0.7263,1.8078,1.0895,2.9318,1.0895c1.1068,0,1.7762,-0.294,2.7762,-1.0895V17.8h2.5V4.84l-2.7,0.5661V9.4526zM11.6066,15.2808c-1.4008,0,-2.4038,-0.9858,-2.4038,-2.2827c0,-1.2451,1.0031,-2.3001,2.3001,-2.3001c1.2796,0,2.2654,1.003,2.2654,2.3346C13.7682,14.3124,12.7825,15.2808,11.6066,15.2808z" fill="#FFFFFF"/>
    <path d="M4.2218,19.7782C6.2124,21.7688,8.9624,23,12,23c6.0751,0,11,-4.9249,11,-11c0,-3.0376,-1.2312,-5.7876,-3.2218,-7.7782L4.2218,19.7782z" fill="#231F20" opacity="0.1"/>
  </g>
</svg>
