<?xml version="1.0" encoding="UTF-8"?>
<!DOCTYPE svg PUBLIC "-//W3C//DTD SVG 1.1//EN" "http://www.w3.org/Graphics/SVG/1.1/DTD/svg11.dtd">
<svg version="1.1" id="Layer_1" xmlns="http://www.w3.org/2000/svg" xmlns:xlink="http://www.w3.org/1999/xlink" x="0px" y="0px" width="24px" height="24px" viewBox="0 0 24 24" enable-background="new 0 0 24 24" xml:space="preserve">
  <g id="icon">
    <circle cx="12" cy="12" r="11" fill="#3AABEF"/>
    <path d="M12.042,18.2651c-1.5573,0,-2.9811,-0.5691,-4.082,-1.5104l-2.7092,0.3701l1.0467,-2.5832c-0.3647,-0.8046,-0.5692,-1.6979,-0.5692,-2.6401c0,-3.5143,2.8268,-6.3637,6.3137,-6.3637c3.4867,0,6.3132,2.8493,6.3132,6.3637C18.3551,15.4164,15.5288,18.2651,12.042,18.2651zM15.4893,11.8832v-0.0177c0,-1.8363,-1.295,-3.1457,-3.5278,-3.1457H9.5499v6.3637h2.3759C14.176,15.0835,15.4893,13.7194,15.4893,11.8832L15.4893,11.8832zM11.9881,13.52h-0.7054v-3.2362h0.7054c1.036,0,1.7236,0.5906,1.7236,1.6093v0.0177C13.7117,12.938,13.0241,13.52,11.9881,13.52z" fill="#FFFFFF"/>
    <path d="M4.2218,19.7782C6.2124,21.7688,8.9624,23,12,23c6.0751,0,11,-4.9249,11,-11c0,-3.0376,-1.2312,-5.7876,-3.2218,-7.7782L4.2218,19.7782z" fill="#231F20" opacity="0.1"/>
  </g>
</svg>
