<?xml version="1.0" encoding="UTF-8"?>
<!DOCTYPE svg PUBLIC "-//W3C//DTD SVG 1.1//EN" "http://www.w3.org/Graphics/SVG/1.1/DTD/svg11.dtd">
<svg version="1.1" id="Layer_1" xmlns="http://www.w3.org/2000/svg" xmlns:xlink="http://www.w3.org/1999/xlink" x="0px" y="0px" width="24px" height="24px" viewBox="0 0 24 24" enable-background="new 0 0 24 24" xml:space="preserve">
  <g id="icon">
    <circle cx="12" cy="12" r="11" fill="#4283E2"/>
    <path d="M9.9029,14.8l-1.8845,2.9741L7.9066,17.9h0.2245h8.6126h0.0763l0.0373,-0.015l1.959,-3.085H9.9029zM14.398,6.158l-0.0382,-0.065l-0.0754,0.0009L10.565,6.108l-0.2245,0.0018l0.1118,0.1918l4.307,7.3459l0.0382,0.0525h0.0754l3.7189,-0.0034l0.2245,0.0053l-0.1127,-0.1886L14.398,6.158zM11.6656,9.9188l-0.0391,-0.065L9.7538,6.6842l-0.1136,-0.1909l-0.1118,0.1918l-4.3065,7.3588l-0.0382,0.0645l0.0391,0.0641l1.8727,3.1705l0.1127,0.1918l0.1127,-0.1918l4.3065,-7.3597L11.6656,9.9188z" fill="#FFFFFF"/>
    <path d="M4.2218,19.7782C6.2124,21.7688,8.9624,23,12,23c6.0751,0,11,-4.9249,11,-11c0,-3.0376,-1.2312,-5.7876,-3.2218,-7.7782L4.2218,19.7782z" fill="#231F20" opacity="0.1"/>
  </g>
</svg>
