<?xml version="1.0" encoding="UTF-8"?>
<!DOCTYPE svg PUBLIC "-//W3C//DTD SVG 1.1//EN" "http://www.w3.org/Graphics/SVG/1.1/DTD/svg11.dtd">
<svg version="1.1" id="Layer_1" xmlns="http://www.w3.org/2000/svg" xmlns:xlink="http://www.w3.org/1999/xlink" x="0px" y="0px" width="24px" height="24px" viewBox="0 0 24 24" enable-background="new 0 0 24 24" xml:space="preserve">
  <g id="icon">
    <circle cx="12" cy="12" r="11" fill="#1F9BCC"/>
    <path d="M14.9196,7.3303c-0.6912,-0.4312,-1.3437,-0.5989,-1.9953,-1.0302c-0.4044,-0.274,-0.9661,-0.9288,-1.4378,-1.4914c-0.0868,0.907,-0.3585,1.2765,-0.6703,1.5409c-0.6603,0.5271,-1.0765,0.6862,-1.6482,1.0043c-0.4803,0.2517,-3.0891,1.8381,-3.0755,5.2281c0.0136,3.3886,2.8478,5.8724,5.9824,5.8592c3.1364,-0.0132,5.8465,-2.323,5.8324,-5.8038C17.8933,9.1566,15.3368,7.5911,14.9196,7.3303L14.9196,7.3303zM15.0119,17.1038c-0.0654,0.0654,-0.6621,0.4885,-1.3642,0.5576c-0.7025,0.0682,-1.6523,0.1113,-2.2266,-0.4117c-0.0913,-0.0918,-0.0663,-0.2222,-0.0009,-0.2749c0.0645,-0.0536,0.1163,-0.0936,0.1949,-0.0941c0.0786,-0.0005,0.0645,-0.0005,0.1041,0.0259c0.2613,0.2095,0.6516,0.3781,1.4837,0.3744c0.8334,-0.0036,1.4187,-0.2413,1.6773,-0.4403c0.1168,-0.0922,0.169,-0.0136,0.1827,0.0391C15.0759,16.9325,15.1028,17.0121,15.0119,17.1038L15.0119,17.1038zM12.7525,16.0078c0.1427,-0.1327,0.3772,-0.344,0.5976,-0.4362c0.2208,-0.0932,0.3367,-0.0804,0.5458,-0.0813c0.2077,-0.0009,0.4303,0.0114,0.5857,0.1168c0.1559,0.1045,0.2486,0.3399,0.3004,0.4703c0.0532,0.1322,0.0009,0.2109,-0.1022,0.2645c-0.0904,0.0523,-0.1041,0.0264,-0.1959,-0.1436c-0.0909,-0.1704,-0.17,-0.3413,-0.6257,-0.3395c-0.4549,0.0018,-0.598,0.1609,-0.8184,0.3454c-0.2204,0.1845,-0.2986,0.2508,-0.3772,0.1459C12.5848,16.245,12.6103,16.1391,12.7525,16.0078L12.7525,16.0078zM17.4385,13.484c0.0014,0.4072,-0.1254,1.1429,-0.4362,1.6041c-0.309,0.4617,-0.5035,0.6335,-0.8693,0.6085c-0.469,-0.0382,-1.411,-1.505,-2.0094,-1.5296c-0.7539,-0.0227,-2.3875,1.6009,-3.6758,1.6059c-0.7811,0.0032,-1.0147,-0.1141,-1.2755,-0.2845c-0.3922,-0.2745,-0.5889,-0.6934,-0.5785,-1.2719c0.0095,-1.0252,0.9543,-1.9867,2.1521,-2.0044c1.5214,-0.02,2.5829,1.5118,3.3495,1.4964c0.6512,-0.015,1.8954,-1.3087,2.507,-1.311C17.2521,12.3943,17.4366,13.0759,17.4385,13.484L17.4385,13.484z" fill="#FFFFFF"/>
    <path d="M4.2218,19.7782C6.2124,21.7688,8.9624,23,12,23c6.0751,0,11,-4.9249,11,-11c0,-3.0376,-1.2312,-5.7876,-3.2218,-7.7782L4.2218,19.7782z" fill="#231F20" opacity="0.1"/>
  </g>
</svg>
