<?xml version="1.0" encoding="UTF-8"?>
<!DOCTYPE svg PUBLIC "-//W3C//DTD SVG 1.1//EN" "http://www.w3.org/Graphics/SVG/1.1/DTD/svg11.dtd">
<svg version="1.1" id="Layer_1" xmlns="http://www.w3.org/2000/svg" xmlns:xlink="http://www.w3.org/1999/xlink" x="0px" y="0px" width="24px" height="24px" viewBox="0 0 24 24" enable-background="new 0 0 24 24" xml:space="preserve">
  <g id="icon">
    <circle cx="12" cy="12" r="11" fill="#82B641"/>
    <path d="M15.524,5.6187c-0.3893,-0.216,-2.5712,0.1168,-2.8452,0.3324c-2.3454,1.6031,-4.3248,3.965,-4.463,7.7578c-0.0251,0.0907,-0.148,0.1819,-0.3022,-0.0404c-0.1541,-0.2222,-0.8843,-2.4922,-0.3554,-4.3363c0.0986,-0.1641,-0.1628,-0.3452,-0.2816,-0.3085c-0.1188,0.0367,-0.6,0.6319,-0.9213,1.1893c-1.5931,2.7635,-0.5514,6.3044,2.2359,7.8542c2.7865,1.552,6.3054,0.5508,7.8569,-2.2366c1.795,-3.2171,0.1282,-9.6242,-0.9241,-10.2118V5.6187z" fill="#FFFFFF"/>
    <path d="M4.2218,19.7782C6.2124,21.7688,8.9624,23,12,23c6.0751,0,11,-4.9249,11,-11c0,-3.0376,-1.2312,-5.7876,-3.2218,-7.7782L4.2218,19.7782z" fill="#231F20" opacity="0.1"/>
  </g>
</svg>
