<?xml version="1.0" encoding="UTF-8"?>
<!DOCTYPE svg PUBLIC "-//W3C//DTD SVG 1.1//EN" "http://www.w3.org/Graphics/SVG/1.1/DTD/svg11.dtd">
<svg version="1.1" id="Layer_1" xmlns="http://www.w3.org/2000/svg" xmlns:xlink="http://www.w3.org/1999/xlink" x="0px" y="0px" width="24px" height="24px" viewBox="0 0 24 24" enable-background="new 0 0 24 24" xml:space="preserve">
  <g id="icon">
    <circle cx="12" cy="12" r="11" fill="#CC428E"/>
    <path d="M8.45,9.1872c1.5545,0,2.8148,1.2602,2.8148,2.8148c0,1.5546,-1.2603,2.8148,-2.8148,2.8148s-2.8148,-1.2602,-2.8148,-2.8148C5.6352,10.4475,6.8955,9.1872,8.45,9.1872L8.45,9.1872zM15.554,9.1872c1.5545,0,2.8148,1.2602,2.8148,2.8148c0,1.5546,-1.2602,2.8148,-2.8148,2.8148s-2.8148,-1.2602,-2.8148,-2.8148C12.7392,10.4475,13.9995,9.1872,15.554,9.1872z" fill="#FFFFFF"/>
    <path d="M4.2218,19.7782C6.2124,21.7688,8.9624,23,12,23c6.0751,0,11,-4.9249,11,-11c0,-3.0376,-1.2312,-5.7876,-3.2218,-7.7782L4.2218,19.7782z" fill="#231F20" opacity="0.1"/>
  </g>
</svg>
