<?xml version="1.0" encoding="UTF-8"?>
<!DOCTYPE svg PUBLIC "-//W3C//DTD SVG 1.1//EN" "http://www.w3.org/Graphics/SVG/1.1/DTD/svg11.dtd">
<svg version="1.1" id="Layer_1" xmlns="http://www.w3.org/2000/svg" xmlns:xlink="http://www.w3.org/1999/xlink" x="0px" y="0px" width="24px" height="24px" viewBox="0 0 24 24" enable-background="new 0 0 24 24" xml:space="preserve">
  <g id="icon">
    <circle cx="12" cy="12" r="11" fill="#4683C6"/>
    <path d="M12.0108,5.644c-3.6784,0,-6.6603,2.7782,-6.6603,6.2052c0,1.9528,0.9685,3.6946,2.4821,4.8321v2.366l2.2678,-1.2523c0.6052,0.1685,1.2464,0.2595,1.9104,0.2595c3.6784,0,6.6603,-2.7782,6.6603,-6.2052S15.6892,5.644,12.0108,5.644zM12.6727,14.0004l-1.6961,-1.8202l-3.3095,1.8202l3.6404,-3.8886l1.7375,1.8202l3.2681,-1.8202L12.6727,14.0004z" fill="#FFFFFF"/>
    <path d="M4.2218,19.7782C6.2124,21.7688,8.9624,23,12,23c6.0751,0,11,-4.9249,11,-11c0,-3.0376,-1.2312,-5.7876,-3.2218,-7.7782L4.2218,19.7782z" fill="#231F20" opacity="0.1"/>
  </g>
</svg>
