<?xml version="1.0" encoding="UTF-8"?>
<!DOCTYPE svg PUBLIC "-//W3C//DTD SVG 1.1//EN" "http://www.w3.org/Graphics/SVG/1.1/DTD/svg11.dtd">
<svg version="1.1" id="Layer_1" xmlns="http://www.w3.org/2000/svg" xmlns:xlink="http://www.w3.org/1999/xlink" x="0px" y="0px" width="24px" height="24px" viewBox="0 0 24 24" enable-background="new 0 0 24 24" xml:space="preserve">
  <g id="icon">
    <circle cx="12" cy="12" r="11" fill="#3E6CAF"/>
    <path d="M8.95,11.066c0.0001,0.9719,-0.7877,1.7599,-1.7597,1.76c-0.9719,0.0001,-1.7599,-0.7877,-1.76,-1.7597s0.7877,-1.7599,1.7597,-1.76c0.0001,0,0.0001,0,0.0001,0c0.9719,-0.0001,1.7598,0.7876,1.7599,1.7595C8.95,11.0658,8.95,11.0659,8.95,11.066zM13.5727,10.5499c0,1.0869,-0.8811,1.9682,-1.9682,1.9682c-1.0869,0,-1.9682,-0.8812,-1.9682,-1.9682c0,-1.0871,0.8812,-1.9682,1.9682,-1.9682C12.6917,8.5817,13.5727,9.4628,13.5727,10.5499zM18.6423,9.9199c0,1.2023,-0.9668,2.1767,-2.1593,2.1767c-1.1923,0,-2.1591,-0.9745,-2.1591,-2.1767c0,-1.2021,0.9668,-2.1765,2.1591,-2.1765C17.6755,7.7434,18.6423,8.7178,18.6423,9.9199zM5.2369,15.7194c0,0.1396,0.0934,0.2317,0.2302,0.2317h3.4065c0.1368,0,0.2302,-0.091,0.2302,-0.2317v-0.648c0,-1.0995,-0.8758,-1.9916,-1.9336,-1.9916c-1.1588,0,-1.9334,1.045,-1.9334,1.9916v0.6482V15.7194zM9.4978,15.7237c0,0.137,0.0923,0.2272,0.2276,0.2272h3.7814c0.1357,0,0.2278,-0.0891,0.2278,-0.2272v-0.7257c0,-1.0793,-0.8363,-2.1816,-2.1312,-2.1816c-1.1103,0,-2.1058,0.9232,-2.1058,2.1816v0.7257H9.4978zM14.1405,15.7211c0,0.1385,0.093,0.2299,0.2295,0.2299h4.2647c0.1366,0,0.2293,-0.0902,0.2293,-0.2299v-0.8661c0,-1.2809,-1.0014,-2.4126,-2.3542,-2.4126c-1.1339,0,-2.3693,0.9136,-2.3693,2.4127V15.7211z" fill="#FFFFFF"/>
    <path d="M4.2218,19.7782C6.2124,21.7688,8.9624,23,12,23c6.0751,0,11,-4.9249,11,-11c0,-3.0376,-1.2312,-5.7876,-3.2218,-7.7782L4.2218,19.7782z" fill="#231F20" opacity="0.1"/>
  </g>
</svg>
