<?xml version="1.0" encoding="UTF-8"?>
<!DOCTYPE svg PUBLIC "-//W3C//DTD SVG 1.1//EN" "http://www.w3.org/Graphics/SVG/1.1/DTD/svg11.dtd">
<svg version="1.1" id="Layer_1" xmlns="http://www.w3.org/2000/svg" xmlns:xlink="http://www.w3.org/1999/xlink" x="0px" y="0px" width="24px" height="24px" viewBox="0 0 24 24" enable-background="new 0 0 24 24" xml:space="preserve">
  <g id="icon">
    <circle cx="12" cy="12" r="11" fill="#B288BC"/>
    <path d="M9.6941,5.7886c0.1771,0.1602,4.8549,4.4154,5.0827,4.6227c0,-0.3074,0,-4.3651,0,-4.4598c-0.8716,-0.3964,-1.797,-0.6002,-2.7523,-0.6002C11.2286,5.3513,10.4469,5.5052,9.6941,5.7886zM8.5894,17.7515c0,-0.2612,0,-5.4422,0,-5.7501c-0.2229,0.2029,-2.6806,2.4408,-2.7576,2.5111C6.367,15.8566,7.3431,16.9956,8.5894,17.7515zM11.5093,8.39c-0.1126,-0.1019,-2.4493,-2.2273,-2.5262,-2.2971c-2.2402,1.1523,-3.6319,3.425,-3.6319,5.9472c0,0.5731,0.0859,1.1572,0.2429,1.737C5.7739,13.612,11.3937,8.4964,11.5093,8.39zM9.291,18.1373c0.6776,0.3057,1.3886,0.4939,2.1187,0.5615h1.224c2.306,-0.2149,4.3637,-1.6395,5.3866,-3.7529c-0.2411,0,-8.586,0,-8.7293,0C9.291,15.0851,9.291,18.0412,9.291,18.1373zM18.6988,12.0401c0,-2.3247,-1.2329,-4.4945,-3.2185,-5.7052c0,0.2647,0,7.7642,0,7.9062c0.137,0,2.734,0,2.8403,0C18.5679,13.5284,18.6988,12.788,18.6988,12.0401z" fill="#FFFFFF"/>
    <path d="M4.2218,19.7782C6.2124,21.7688,8.9624,23,12,23c6.0751,0,11,-4.9249,11,-11c0,-3.0376,-1.2312,-5.7876,-3.2218,-7.7782L4.2218,19.7782z" fill="#231F20" opacity="0.1"/>
  </g>
</svg>
