<?xml version="1.0" encoding="UTF-8"?>
<!DOCTYPE svg PUBLIC "-//W3C//DTD SVG 1.1//EN" "http://www.w3.org/Graphics/SVG/1.1/DTD/svg11.dtd">
<svg version="1.1" id="Layer_1" xmlns="http://www.w3.org/2000/svg" xmlns:xlink="http://www.w3.org/1999/xlink" x="0px" y="0px" width="24px" height="24px" viewBox="0 0 24 24" enable-background="new 0 0 24 24" xml:space="preserve">
  <g id="icon">
    <path d="M12.0129,23.0016c6.0758,0,11.0008,-4.9256,11.0008,-11.0011C23.0136,5.9253,18.0887,1,12.0129,1C5.9365,1,1.0121,5.9253,1.0121,12.0005C1.0121,18.0759,5.9365,23.0016,12.0129,23.0016" fill="#3BAEDA"/>
    <path d="M17.565,13.2694c0.0849,-0.3893,0.1295,-0.7918,0.1295,-1.2061c0,-3.1028,-2.5153,-5.6184,-5.6188,-5.6184c-0.3274,0,-0.648,0.0284,-0.9609,0.0822c-0.5019,-0.3165,-1.0961,-0.5005,-1.7333,-0.5005c-1.8,0,-3.2587,1.459,-3.2587,3.259c0,0.6014,0.1637,1.1642,0.4478,1.6481c-0.0747,0.365,-0.1137,0.7431,-0.1137,1.1297c0,3.1038,2.5153,5.6191,5.6188,5.6191c0.3517,0,0.6954,-0.0325,1.0289,-0.094c0.4593,0.2465,0.9832,0.3866,1.5406,0.3866c1.7996,0,3.2584,-1.4588,3.2584,-3.2587C17.9036,14.1968,17.7815,13.7054,17.565,13.2694zM14.9577,14.7488c-0.2594,0.368,-0.6436,0.6592,-1.1419,0.8662c-0.4924,0.205,-1.0829,0.3088,-1.7553,0.3088c-0.8074,0,-1.4838,-0.142,-2.012,-0.422c-0.3778,-0.2036,-0.6887,-0.4796,-0.9254,-0.8212c-0.2384,-0.3436,-0.3592,-0.6852,-0.3592,-1.0153c0,-0.2053,0.0788,-0.3839,0.2341,-0.53c0.1538,-0.1451,0.351,-0.2182,0.5864,-0.2182c0.1932,0,0.3599,0.0575,0.4952,0.1715c0.1292,0.1103,0.2398,0.2726,0.3294,0.482c0.0997,0.2286,0.208,0.4207,0.3223,0.5716c0.1106,0.1464,0.2692,0.2692,0.4715,0.3649c0.2036,0.0964,0.4786,0.1455,0.8161,0.1455c0.4644,0,0.8455,-0.0991,1.132,-0.2949c0.28,-0.1908,0.4157,-0.4204,0.4157,-0.7011c0,-0.2215,-0.0711,-0.3957,-0.2168,-0.533c-0.1532,-0.1431,-0.3548,-0.2537,-0.5996,-0.3308c-0.2554,-0.0791,-0.6021,-0.1657,-1.0309,-0.2557c-0.5834,-0.1245,-1.0786,-0.2726,-1.4726,-0.4401c-0.4031,-0.1714,-0.7279,-0.4096,-0.9653,-0.7065c-0.2411,-0.3023,-0.3636,-0.6805,-0.3636,-1.1263c0,-0.4241,0.1282,-0.8073,0.3815,-1.1367c0.251,-0.3277,0.6183,-0.5831,1.0907,-0.7569c0.4664,-0.1725,1.0208,-0.26,1.6488,-0.26c0.5016,0,0.9426,0.0585,1.3109,0.1725c0.3706,0.115,0.6825,0.2709,0.928,0.4627c0.2469,0.1931,0.4313,0.399,0.5466,0.6138c0.1164,0.2165,0.1755,0.4322,0.1755,0.6409c0,0.2009,-0.0774,0.3832,-0.2307,0.5425c-0.1539,0.1599,-0.348,0.2411,-0.577,0.2411c-0.208,0,-0.3711,-0.0514,-0.4837,-0.1505c-0.1051,-0.0936,-0.2144,-0.2388,-0.3355,-0.4471c-0.1401,-0.2658,-0.3098,-0.4759,-0.5043,-0.6237c-0.189,-0.1441,-0.5046,-0.2165,-0.9385,-0.2165c-0.4022,0,-0.7302,0.0806,-0.9734,0.2405c-0.2344,0.1532,-0.3483,0.3294,-0.3483,0.5385c0,0.1281,0.0368,0.235,0.1126,0.3267c0.0794,0.0984,0.1924,0.183,0.3345,0.2547c0.1477,0.0744,0.3003,0.1333,0.4525,0.1752c0.1559,0.0436,0.418,0.1076,0.7772,0.1908c0.4549,0.0977,0.8729,0.207,1.2422,0.3254c0.3744,0.12,0.6974,0.2668,0.9616,0.4389c0.2689,0.1752,0.482,0.3998,0.6332,0.6687c0.1518,0.2699,0.2286,0.6027,0.2286,0.99C15.351,13.9577,15.2185,14.3801,14.9577,14.7488z" fill="#FFFFFF"/>
    <path d="M4.2218,19.7782C6.2124,21.7688,8.9624,23,12,23c6.0751,0,11,-4.9249,11,-11c0,-3.0376,-1.2312,-5.7876,-3.2218,-7.7782L4.2218,19.7782z" fill="#231F20" opacity="0.1"/>
  </g>
</svg>
