<?xml version="1.0" encoding="UTF-8"?>
<!DOCTYPE svg PUBLIC "-//W3C//DTD SVG 1.1//EN" "http://www.w3.org/Graphics/SVG/1.1/DTD/svg11.dtd">
<svg version="1.1" id="Layer_1" xmlns="http://www.w3.org/2000/svg" xmlns:xlink="http://www.w3.org/1999/xlink" x="0px" y="0px" width="24px" height="24px" viewBox="0 0 24 24" enable-background="new 0 0 24 24" xml:space="preserve">
  <g id="icon">
    <circle cx="12" cy="12" r="11" fill="#F7D441"/>
    <path d="M11.9418,5.9045c-1.7315,0.0114,-3.4105,1.2017,-3.5296,3.0204c-0.0241,0.3682,-0.0009,0.7386,0.0222,1.1063c0.0177,0.2812,0.2056,0.942,-0.1757,0.9523c-0.3843,0.0103,-1.4615,-0.4578,-1.4905,0.2937c-0.0194,0.5227,1.0579,0.6523,1.3698,0.8689c0.7103,0.4934,-0.4167,1.7495,-0.8017,2.1115c-0.31,0.2914,-0.6627,0.5355,-1.0565,0.6991c-0.2225,0.0925,-0.6311,0.1309,-0.7785,0.352c-0.3549,0.5126,1.2531,0.7728,1.5112,0.8394c0.3238,0.0835,0.2844,0.4852,0.3698,0.7655c0.0651,0.2177,0.4662,0.0726,0.6061,0.0506c1.0764,-0.1692,1.6552,0.185,2.5477,0.724c0.5375,0.2685,0.9409,0.4234,1.5468,0.4027c0.8976,-0.0307,1.4301,-0.4548,2.1876,-0.8922c0.6542,-0.3777,1.4226,-0.3094,2.1524,-0.2128c0.1622,0.0209,0.2156,-0.1581,0.2343,-0.2164c0.1564,-0.5129,0.208,-0.5879,0.6938,-0.6896c0.2432,-0.0509,1.4035,-0.2884,1.1499,-0.7713c-0.174,-0.3313,-0.9992,-0.44,-1.3007,-0.6375c-0.6161,-0.4035,-1.1232,-1.0077,-1.4292,-1.6765c-0.1887,-0.4124,-0.088,-1.032,0.5244,-1.032c0.3159,-0.1086,1.074,-0.3486,0.9157,-0.8203c-0.2613,-0.5326,-0.7678,-0.2351,-1.1778,-0.1846c-0.1728,0.0288,-0.4702,0.1046,-0.4942,-0.1132c-0.0984,-0.1677,0.0174,-0.6973,0.0205,-0.8943c0,-0.6949,0.0637,-1.3813,-0.2174,-2.0359C14.7552,6.548,13.3689,5.8886,11.9418,5.9045z" fill="#FFFFFF"/>
    <path d="M4.2218,19.7782C6.2124,21.7688,8.9624,23,12,23c6.0751,0,11,-4.9249,11,-11c0,-3.0376,-1.2312,-5.7876,-3.2218,-7.7782L4.2218,19.7782z" fill="#231F20" opacity="0.1"/>
  </g>
</svg>
