<?xml version="1.0" encoding="UTF-8"?>
<!DOCTYPE svg PUBLIC "-//W3C//DTD SVG 1.1//EN" "http://www.w3.org/Graphics/SVG/1.1/DTD/svg11.dtd">
<svg version="1.1" id="Layer_1" xmlns="http://www.w3.org/2000/svg" xmlns:xlink="http://www.w3.org/1999/xlink" x="0px" y="0px" width="24px" height="24px" viewBox="0 0 24 24" enable-background="new 0 0 24 24" xml:space="preserve">
  <g id="icon">
    <circle cx="12" cy="12" r="11" fill="#EB5532"/>
    <path d="M12.002,6.7709c-1.6495,0,-2.9866,1.3371,-2.9866,2.9866v4.2441c0,0.3907,-0.3167,0.7074,-0.7074,0.7074c-0.3907,0,-0.7074,-0.3167,-0.7074,-0.7074v-1.8863H5.3214v1.9649c0,1.6495,1.3372,2.9866,2.9866,2.9866c1.6495,0,2.9866,-1.3371,2.9866,-2.9866V9.7576c0,-0.3907,0.3167,-0.7074,0.7074,-0.7074c0.3907,0,0.7074,0.3167,0.7074,0.7074v0.8646l0.9431,0.4323l1.3361,-0.4323v-0.8646C14.9886,8.1081,13.6515,6.7709,12.002,6.7709L12.002,6.7709zM12.7094,12.1547v1.9256c0,1.6495,1.3371,2.9866,2.9866,2.9866c1.6495,0,2.9866,-1.3371,2.9866,-2.9866V12.194h-2.2793v1.8863c0,0.3907,-0.3167,0.7074,-0.7074,0.7074c-0.3907,0,-0.7074,-0.3167,-0.7074,-0.7074v-1.9256l-1.3361,0.4323L12.7094,12.1547z" fill="#FFFFFF"/>
    <path d="M4.2218,19.7782C6.2124,21.7688,8.9624,23,12,23c6.0751,0,11,-4.9249,11,-11c0,-3.0376,-1.2312,-5.7876,-3.2218,-7.7782L4.2218,19.7782z" fill="#231F20" opacity="0.1"/>
  </g>
</svg>
