<?xml version="1.0" encoding="UTF-8"?>
<!DOCTYPE svg PUBLIC "-//W3C//DTD SVG 1.1//EN" "http://www.w3.org/Graphics/SVG/1.1/DTD/svg11.dtd">
<svg version="1.1" id="Layer_1" xmlns="http://www.w3.org/2000/svg" xmlns:xlink="http://www.w3.org/1999/xlink" x="0px" y="0px" width="24px" height="24px" viewBox="0 0 24 24" enable-background="new 0 0 24 24" xml:space="preserve">
  <g id="icon">
    <circle cx="12" cy="12" r="11" fill="#656D78"/>
    <path d="M11.8009,5h0.4467c0.3102,0.1,0.5791,0.2391,0.8499,0.3956c1.5085,0.8693,3.017,1.7381,4.5256,2.6074c0.1665,0.1083,0.3618,0.2154,0.444,0.4053c0.0515,0.1832,-0.111,0.3588,-0.2969,0.3314c-2.9669,0.0026,-5.9339,-0.0015,-8.9014,0.0019c-0.5457,0.0047,-1.0344,0.456,-1.1033,0.9936c-0.1023,0.6373,0.4306,1.2791,1.0732,1.3073c0.5898,0.012,1.1809,-0.0027,1.7707,0.0047c0.4065,-0.006,0.769,0.3664,0.7589,0.7717c0.0228,0.246,-0.121,0.456,-0.2287,0.6633c-0.7387,1.4161,-1.4766,2.8326,-2.214,4.2494c-0.0715,0.1311,-0.1277,0.2749,-0.2287,0.3878c-0.1257,0.1211,-0.3283,0.1017,-0.4648,0.0087c-0.6312,-0.3678,-1.2841,-0.7262,-1.9127,-1.098c-0.3436,-0.1945,-0.5194,-0.5543,-0.6194,-0.9495V8.9681c0.1,-0.3872,0.3079,-0.7295,0.6428,-0.9255c1.6262,-0.9408,3.2643,-1.874,4.8912,-2.8142C11.4079,5.1248,11.6022,5.1,11.8009,5zM13.7621,12.4225c0.4233,-0.8305,1.332,-1.3895,2.2661,-1.3775c0.7636,0.0026,1.5273,0,2.2915,0.002c0,1.3039,-0.0007,2.6078,0,3.9118c-0.0033,0.2421,-0.0495,0.4941,-0.1919,0.6955c-0.1792,0.2554,-0.4587,0.4099,-0.7249,0.5596c-1.4798,0.8519,-2.9589,1.7029,-4.438,2.5554c-0.2394,0.1391,-0.4828,0.2308,-0.7603,0.3308h-0.3671c-0.456,-0.1,-0.8265,-0.3963,-1.2344,-0.6049C11.647,16.465,12.7123,14.4486,13.7621,12.4225z" fill="#FFFFFF"/>
    <path d="M4.2218,19.7782C6.2124,21.7688,8.9624,23,12,23c6.0751,0,11,-4.9249,11,-11c0,-3.0376,-1.2312,-5.7876,-3.2218,-7.7782L4.2218,19.7782z" fill="#231F20" opacity="0.1"/>
  </g>
</svg>
