<?xml version="1.0" encoding="UTF-8"?>
<!DOCTYPE svg PUBLIC "-//W3C//DTD SVG 1.1//EN" "http://www.w3.org/Graphics/SVG/1.1/DTD/svg11.dtd">
<svg version="1.1" id="Layer_1" xmlns="http://www.w3.org/2000/svg" xmlns:xlink="http://www.w3.org/1999/xlink" x="0px" y="0px" width="24px" height="24px" viewBox="0 0 24 24" enable-background="new 0 0 24 24" xml:space="preserve">
  <g id="icon">
    <circle cx="12" cy="12" r="11" fill="#EF9943"/>
    <path d="M15.8451,13.8763c0,1.3499,-0.4629,2.5296,-1.3887,3.539c-0.9258,1.0095,-2.1159,1.5141,-3.5703,1.5141c-1.4603,0,-2.6533,-0.5047,-3.579,-1.5141c-0.9258,-1.0094,-1.3886,-2.1892,-1.3886,-3.539c0,-1.3379,0.438,-2.4984,1.3142,-3.4812c0.9636,-1.0835,2.1815,-1.6252,3.6534,-1.6252c0.619,0,1.1926,0.0972,1.722,0.2893c-0.172,0.3362,-0.3273,0.7481,-0.3694,1.1906c-0.4206,-0.1748,-0.8727,-0.2632,-1.357,-0.2632c-1.0181,0,-1.893,0.3819,-2.6243,1.1456c-0.7314,0.7638,-1.0971,1.6874,-1.0971,2.7708c0,0.6987,0.1668,1.3498,0.5003,1.9538c0.3335,0.6039,0.784,1.0702,1.3517,1.3987c0.3766,0.2181,0.7783,0.3621,1.2039,0.4355c3.6388,-1.4134,3.2095,-8.3125,3.1832,-8.6891c0.0211,0.0618,0.0318,0.095,0.0318,0.095c2.1388,5.7092,-2.5235,8.6497,-2.5235,8.6497c-0.0134,0.0006,-0.0267,0.0009,-0.04,0.0014c0.0047,0,0.0093,0.0004,0.014,0.0004c0.6786,0,1.3018,-0.1643,1.8694,-0.4929c0.5676,-0.3285,1.0181,-0.7948,1.3517,-1.3987c0.3334,-0.604,0.5003,-1.2551,0.5003,-1.9538c0,-0.5668,-0.1014,-1.0894,-0.3024,-1.5687c0.3346,-0.0698,0.7384,-0.2066,1.1635,-0.468C15.7173,12.4842,15.8451,13.1539,15.8451,13.8763zM11.4472,4.8476c1.1724,1.9674,1.8085,3.7336,1.9523,4.1542c-0.0007,-0.0106,-0.0012,-0.017,-0.0012,-0.017C13.1116,5.9511,11.4472,4.8476,11.4472,4.8476zM17.131,7.3275c-0.1057,1.3141,-2.939,2.8664,-2.939,2.8664c0.9371,0.9179,1.8329,0.8072,2.4242,0.4552c0.7839,-0.4665,1.1599,-1.4883,1.1599,-1.4883c0.7595,-2.2693,-0.4752,-3.9933,-0.4752,-3.9933c-0.5954,1.265,-1.6978,1.5001,-1.6978,1.5001c-1.1024,0.2799,-1.4883,0.7052,-1.4883,0.7052c-1.1024,1.1083,-0.234,2.4522,-0.234,2.4522C16.2609,9.2834,17.131,7.3275,17.131,7.3275z" fill="#FFFFFF"/>
    <path d="M4.2218,19.7782C6.2124,21.7688,8.9624,23,12,23c6.0751,0,11,-4.9249,11,-11c0,-3.0376,-1.2312,-5.7876,-3.2218,-7.7782L4.2218,19.7782z" fill="#231F20" opacity="0.1"/>
  </g>
</svg>
