<?xml version="1.0" encoding="UTF-8"?>
<!DOCTYPE svg PUBLIC "-//W3C//DTD SVG 1.1//EN" "http://www.w3.org/Graphics/SVG/1.1/DTD/svg11.dtd">
<svg version="1.1" id="Layer_1" xmlns="http://www.w3.org/2000/svg" xmlns:xlink="http://www.w3.org/1999/xlink" x="0px" y="0px" width="24px" height="24px" viewBox="0 0 24 24" enable-background="new 0 0 24 24" xml:space="preserve">
  <g id="icon">
    <circle cx="12" cy="12" r="11" fill="#1AB7EA"/>
    <path d="M10.0946,17.6663c-0.6573,-0.5479,-0.9312,-1.1499,-1.5885,-3.6968c-0.6845,-2.5196,-1.0406,-3.4781,-1.4239,-3.6152c-0.4929,0,-0.8216,0.2193,-1.2598,0.4383c-0.1918,-0.2465,-0.3836,-0.4655,-0.5751,-0.7119l1.068,-1.0131C8.15,7.3423,9.1087,6.904,9.9028,7.4519c0.5204,0.3561,0.7394,0.9309,1.068,2.7933c0.4108,2.3004,0.7119,3.341,1.0408,3.6424c0.2737,0.2465,0.3012,0.2193,0.7119,-0.1646c0.6573,-0.6298,1.4788,-2.2729,1.4788,-2.9849c0,-0.7394,-0.3286,-0.9584,-1.1777,-0.8216l-0.5748,0.0822l0.2462,-0.6026c0.3286,-0.8216,1.1502,-1.7528,1.8624,-2.0811c0.7944,-0.3561,1.9171,-0.3561,2.5191,0c0.6028,0.3558,0.8218,1.0955,0.7669,2.3276c-0.0822,1.2598,-0.7669,2.6562,-2.3279,4.7379c-2.3276,3.122,-4.1897,4.2175,-5.3674,3.2041L10.0946,17.6663L10.0946,17.6663z" fill="#FFFFFF"/>
    <path d="M4.2218,19.7782C6.2124,21.7688,8.9624,23,12,23c6.0751,0,11,-4.9249,11,-11c0,-3.0376,-1.2312,-5.7876,-3.2218,-7.7782L4.2218,19.7782z" fill="#231F20" opacity="0.1"/>
  </g>
</svg>
