<?xml version="1.0" encoding="UTF-8"?>
<!DOCTYPE svg PUBLIC "-//W3C//DTD SVG 1.1//EN" "http://www.w3.org/Graphics/SVG/1.1/DTD/svg11.dtd">
<svg version="1.1" id="Layer_1" xmlns="http://www.w3.org/2000/svg" xmlns:xlink="http://www.w3.org/1999/xlink" x="0px" y="0px" width="24px" height="24px" viewBox="0 0 24 24" enable-background="new 0 0 24 24" xml:space="preserve">
  <g id="icon">
    <circle cx="12.0017" cy="12.0017" r="10.9983" fill="#DD3C7E"/>
    <path d="M17.2424,8.1063c-0.9374,-0.8295,-2.0197,-1.1387,-3.2342,-0.6555c-0.6282,0.2448,-1.2193,0.5734,-1.7121,1.034c-0.116,0.1079,-0.2529,0.2126,-0.2529,0.2126s-0.1949,-0.145,-0.2851,-0.2239c-0.4719,-0.4188,-0.9922,-0.7715,-1.5655,-1.0276c-0.5444,-0.2448,-1.1033,-0.422,-1.7202,-0.3173c-1.6332,0.2738,-2.9926,2.0149,-2.8992,3.6707c0.0145,0.2384,0.0032,0.48,0.0435,0.7216c0.2561,1.5865,1.1242,2.8235,2.2275,3.9123c1.1581,1.1436,2.5029,2.0375,3.9123,2.838c0.0902,0.0499,0.2738,0.1482,0.2738,0.1482s0.1627,-0.0934,0.2674,-0.1546c1.1468,-0.6813,2.2565,-1.4141,3.2519,-2.3c1.0888,-0.9728,2.0584,-2.0439,2.6028,-3.4355C18.8224,10.8251,18.5261,9.2418,17.2424,8.1063z" fill="#FFFFFF"/>
    <path d="M4.2218,19.7782C6.2124,21.7688,8.9624,23,12,23c6.0751,0,11,-4.9249,11,-11c0,-3.0376,-1.2312,-5.7876,-3.2218,-7.7782L4.2218,19.7782z" fill="#231F20" opacity="0.1"/>
  </g>
</svg>
