<?xml version="1.0" encoding="UTF-8"?>
<!DOCTYPE svg PUBLIC "-//W3C//DTD SVG 1.1//EN" "http://www.w3.org/Graphics/SVG/1.1/DTD/svg11.dtd">
<svg version="1.1" id="Layer_1" xmlns="http://www.w3.org/2000/svg" xmlns:xlink="http://www.w3.org/1999/xlink" x="0px" y="0px" width="24px" height="24px" viewBox="0 0 24 24" enable-background="new 0 0 24 24" xml:space="preserve">
  <g id="icon">
    <circle cx="12" cy="12" r="11" fill="#C9C428"/>
    <path d="M7.3649,7.9917c-0.116,0,-0.2137,0.0408,-0.2629,0.1205c-0.0508,0.0823,-0.0431,0.1883,0.0111,0.2957l1.3034,2.2563c0.0022,0.0043,0.0022,0.007,0,0.011l-2.0482,3.6144c-0.0534,0.1064,-0.0508,0.2133,0,0.2957c0.0492,0.0793,0.1359,0.1314,0.252,0.1314h1.9277c0.2882,0,0.4272,-0.1945,0.5258,-0.3722c0,0,2.0031,-3.5427,2.0811,-3.6802c-0.0079,-0.0127,-1.3252,-2.311,-1.3252,-2.311c-0.0962,-0.1709,-0.241,-0.3616,-0.5366,-0.3616L7.3649,7.9917L7.3649,7.9917zM15.4633,5.3519c-0.288,0,-0.4127,0.1814,-0.5161,0.3672c0,0,-4.1528,7.3647,-4.2897,7.6065c0.007,0.0131,2.739,5.025,2.739,5.025c0.0957,0.171,0.2433,0.3672,0.5387,0.3672h1.9254c0.1161,0,0.2069,-0.0437,0.2558,-0.1232c0.0515,-0.0822,0.05,-0.1909,-0.0039,-0.2979l-2.7176,-4.9652c-0.0026,-0.0038,-0.0026,-0.0088,0,-0.0126l4.268,-7.5465c0.0537,-0.1065,0.0548,-0.2152,0.0041,-0.2975c-0.0492,-0.0794,-0.1402,-0.1232,-0.2564,-0.1232h-1.9474v0.0001L15.4633,5.3519L15.4633,5.3519z" fill="#FFFFFF"/>
    <path d="M4.2218,19.7782C6.2124,21.7688,8.9624,23,12,23c6.0751,0,11,-4.9249,11,-11c0,-3.0376,-1.2312,-5.7876,-3.2218,-7.7782L4.2218,19.7782z" fill="#231F20" opacity="0.1"/>
  </g>
</svg>
